<svg xmlns="http://www.w3.org/2000/svg" width="720" height="360" font-family="sans-serif">
<rect width="720" height="360" fill="#ffffff"/>
<text x="360" y="24" text-anchor="middle" font-size="16" font-weight="bold">Cost of Capital chart line — issue #717 (score with ~113 days of actuals)</text>
<line x1="48" y1="312" x2="672" y2="312" stroke="#333"/>
<line x1="48" y1="48" x2="48" y2="312" stroke="#333"/>
<line x1="544.9911504424779" y1="48" x2="544.9911504424779" y2="312" stroke="#bbb" stroke-dasharray="4 4"/>
<text x="544.9911504424779" y="328" text-anchor="middle" font-size="11" fill="#888">90-day judgement line</text>
<text x="48" y="328" text-anchor="middle" font-size="11" fill="#888">day 0</text>
<text x="672" y="328" text-anchor="middle" font-size="11" fill="#888">day 113</text>
<path d="M48.0,312.0 L53.5,309.9 L59.0,307.8 L64.6,305.6 L70.1,303.5 L75.6,301.4 L81.1,299.3 L86.7,297.1 L92.2,295.0 L97.7,292.9 L103.2,290.8 L108.7,288.6 L114.3,286.5 L119.8,284.4 L125.3,282.3 L130.8,280.1 L136.4,278.0 L141.9,275.9 L147.4,273.8 L152.9,271.6 L158.4,269.5 L164.0,267.4 L169.5,265.3 L175.0,263.2 L180.5,261.0 L186.1,258.9 L191.6,256.8 L197.1,254.7 L202.6,252.5 L208.1,250.4 L213.7,248.3 L219.2,246.2 L224.7,244.0 L230.2,241.9 L235.8,239.8 L241.3,237.7 L246.8,235.5 L252.3,233.4 L257.8,231.3 L263.4,229.2 L268.9,227.0 L274.4,224.9 L279.9,222.8 L285.5,220.7 L291.0,218.5 L296.5,216.4 L302.0,214.3 L307.5,212.2 L313.1,210.1 L318.6,207.9 L324.1,205.8 L329.6,203.7 L335.2,201.6 L340.7,199.4 L346.2,197.3 L351.7,195.2 L357.2,193.1 L362.8,190.9 L368.3,188.8 L373.8,186.7 L379.3,184.6 L384.8,182.4 L390.4,180.3 L395.9,178.2 L401.4,176.1 L406.9,173.9 L412.5,171.8 L418.0,169.7 L423.5,167.6 L429.0,165.5 L434.5,163.3 L440.1,161.2 L445.6,159.1 L451.1,157.0 L456.6,154.8 L462.2,152.7 L467.7,150.6 L473.2,148.5 L478.7,146.3 L484.2,144.2 L489.8,142.1 L495.3,140.0 L500.8,137.8 L506.3,135.7 L511.9,133.6 L517.4,131.5 L522.9,129.3 L528.4,127.2 L533.9,125.1 L539.5,123.0 L545.0,120.8 L550.5,120.8 L556.0,120.8 L561.6,120.8 L567.1,120.8 L572.6,120.8 L578.1,120.8 L583.6,120.8 L589.2,120.8 L594.7,120.8 L600.2,120.8 L605.7,120.8 L611.3,120.8 L616.8,120.8 L622.3,120.8 L627.8,120.8 L633.3,120.8 L638.9,120.8 L644.4,120.8 L649.9,120.8 L655.4,120.8 L661.0,120.8 L666.5,120.8 L672.0,120.8" fill="none" stroke="#dc3545" stroke-width="2.5" stroke-dasharray="6 4"/>
<path d="M48.0,312.0 L53.5,309.9 L59.0,307.8 L64.6,305.6 L70.1,303.5 L75.6,301.4 L81.1,299.3 L86.7,297.1 L92.2,295.0 L97.7,292.9 L103.2,290.8 L108.7,288.6 L114.3,286.5 L119.8,284.4 L125.3,282.3 L130.8,280.1 L136.4,278.0 L141.9,275.9 L147.4,273.8 L152.9,271.6 L158.4,269.5 L164.0,267.4 L169.5,265.3 L175.0,263.2 L180.5,261.0 L186.1,258.9 L191.6,256.8 L197.1,254.7 L202.6,252.5 L208.1,250.4 L213.7,248.3 L219.2,246.2 L224.7,244.0 L230.2,241.9 L235.8,239.8 L241.3,237.7 L246.8,235.5 L252.3,233.4 L257.8,231.3 L263.4,229.2 L268.9,227.0 L274.4,224.9 L279.9,222.8 L285.5,220.7 L291.0,218.5 L296.5,216.4 L302.0,214.3 L307.5,212.2 L313.1,210.1 L318.6,207.9 L324.1,205.8 L329.6,203.7 L335.2,201.6 L340.7,199.4 L346.2,197.3 L351.7,195.2 L357.2,193.1 L362.8,190.9 L368.3,188.8 L373.8,186.7 L379.3,184.6 L384.8,182.4 L390.4,180.3 L395.9,178.2 L401.4,176.1 L406.9,173.9 L412.5,171.8 L418.0,169.7 L423.5,167.6 L429.0,165.5 L434.5,163.3 L440.1,161.2 L445.6,159.1 L451.1,157.0 L456.6,154.8 L462.2,152.7 L467.7,150.6 L473.2,148.5 L478.7,146.3 L484.2,144.2 L489.8,142.1 L495.3,140.0 L500.8,137.8 L506.3,135.7 L511.9,133.6 L517.4,131.5 L522.9,129.3 L528.4,127.2 L533.9,125.1 L539.5,123.0 L545.0,120.8 L550.5,118.7 L556.0,116.6 L561.6,114.5 L567.1,112.4 L572.6,110.2 L578.1,108.1 L583.6,106.0 L589.2,103.9 L594.7,101.7 L600.2,99.6 L605.7,97.5 L611.3,95.4 L616.8,93.2 L622.3,91.1 L627.8,89.0 L633.3,86.9 L638.9,84.7 L644.4,82.6 L649.9,80.5 L655.4,78.4 L661.0,76.2 L666.5,74.1 L672.0,72.0" fill="none" stroke="#6c757d" stroke-width="2.5"/>
<rect x="460" y="48" width="210" height="52" fill="#fff" stroke="#ddd"/>
<line x1="470" y1="66" x2="500" y2="66" stroke="#6c757d" stroke-width="2.5"/>
<text x="506" y="70" font-size="12">Fixed: accrues to ~3.10%</text>
<line x1="470" y1="88" x2="500" y2="88" stroke="#dc3545" stroke-width="2.5" stroke-dasharray="6 4"/>
<text x="506" y="92" font-size="12">Old: flat at 2.47% after day 90</text>
</svg>